# xmcd
#
# Track frame offsets:
#	187
#	21787
#	36150
#	57395
#	76270
#	94780
#	115925
#	134415
#	149582
#	168862
#	189917
#	205845
#	230680
#	243620
#	262460
#	275850
#	295050
#	314377
#	332330
#
# Disc length: 4728
#
# Revision: 1
# Processed by: cddbd v1.5.1PL0 Copyright (c) Steve Scherf et al.
# Submitted via: CDex 1.51
# Normalized: r0:DSETVAR1
#
DISCID=21127613
DTITLE=Various Artist - BRAZILIAN LOVE SONGS
DYEAR=1988
DGENRE=Omnibus
TTITLE0=Brincar De Viver - Maria Bethania
TTITLE1=O Fundo - Leila Pinheiro
TTITLE2=Sozinha - Fafa De Belem
TTITLE3=Vieste - Ivan Lins
TTITLE4=Asa Morena - Zizi Possi
TTITLE5=De Volta Pro Aconchego - Elba Ramalho
TTITLE6=Sufoco - Alcione
TTITLE7=O Meu Amor - Maria Bethania
TTITLE8=Princesa - Wando
TTITLE9=India - Gal Costa
TTITLE10=Lua E Estrela - Caetano Veloso
TTITLE11=Sentado A Beira Do Caminho - Erasmo Carlos and Roberto Carlos
TTITLE12=E Com Esse Que Eu Vou - Elis Regina
TTITLE13=Nos Bailes Da Vida - Milton Nascimento
TTITLE14=Faz Parte Do Meu Show - Cazuza
TTITLE15=Alem Do Horizonte - Nara Leao
TTITLE16=Aquarela - Toquinho
TTITLE17=Meu Homem (Carta a Nelson Mandela) - Beth Carvalho
TTITLE18=Veneno - Marina
EXTD=YEAR: 1988
EXTT0=
EXTT1=
EXTT2=
EXTT3=
EXTT4=
EXTT5=
EXTT6=
EXTT7=
EXTT8=
EXTT9=
EXTT10=
EXTT11=
EXTT12=
EXTT13=
EXTT14=
EXTT15=
EXTT16=
EXTT17=
EXTT18=
PLAYORDER=
